<svg width="133" height="47" viewBox="0 0 133 47" fill="none" xmlns="http://www.w3.org/2000/svg">
<path d="M47.377 32.8242H40.917L23.6885 8.20605L6.45996 32.8242H0L23.6885 0L47.377 32.8242Z" fill="#054484"/>
<path d="M47.8242 46.5H41.3643L24.1357 21.8818L6.90723 46.5H0.446289L24.1357 13.6758L47.8242 46.5Z" fill="#BF9105"/>
<path d="M66.1191 6.26499V20.25H64.1797L57.0711 9.99341H56.9414V20.25H54.8314V6.26499H56.7843L63.8998 16.5352H64.0295V6.26499H66.1191ZM73.5537 20.4617C72.5203 20.4617 71.6303 20.2409 70.8837 19.7993C70.1417 19.3532 69.5681 18.7272 69.1629 17.9214C68.7623 17.1111 68.562 16.1619 68.562 15.0739C68.562 13.9995 68.7623 13.0526 69.1629 12.2332C69.5681 11.4138 70.1326 10.7742 70.8564 10.3144C71.5848 9.85456 72.4361 9.62467 73.4103 9.62467C74.0021 9.62467 74.5757 9.72254 75.1311 9.9183C75.6865 10.1141 76.185 10.4213 76.6266 10.8402C77.0682 11.259 77.4165 11.803 77.6714 12.4722C77.9263 13.1369 78.0538 13.9449 78.0538 14.8964V15.6202H69.716V14.0906H76.053C76.053 13.5534 75.9437 13.0777 75.7252 12.6634C75.5067 12.2446 75.1994 11.9145 74.8034 11.6733C74.4119 11.432 73.9521 11.3113 73.424 11.3113C72.8504 11.3113 72.3496 11.4525 71.9217 11.7347C71.4983 12.0124 71.1705 12.3766 70.9384 12.8273C70.7107 13.2734 70.5969 13.7583 70.5969 14.2818V15.4768C70.5969 16.1779 70.7199 16.7742 70.9657 17.2659C71.2161 17.7576 71.5643 18.1331 72.0105 18.3926C72.4566 18.6476 72.9778 18.775 73.5742 18.775C73.9612 18.775 74.314 18.7204 74.6327 18.6111C74.9513 18.4973 75.2267 18.3289 75.4589 18.1058C75.6911 17.8827 75.8686 17.6073 75.9915 17.2796L77.924 17.6278C77.7693 18.1969 77.4916 18.6954 77.091 19.1233C76.6949 19.5467 76.1964 19.8767 75.5955 20.1134C74.9991 20.3456 74.3185 20.4617 73.5537 20.4617ZM81.6866 9.76124L84.0015 13.8448L86.3369 9.76124H88.5699L85.299 15.0056L88.5972 20.25H86.3642L84.0015 16.3304L81.6456 20.25H79.4059L82.6699 15.0056L79.4468 9.76124H81.6866ZM102.446 10.8128H100.315C100.233 10.3576 100.081 9.95699 99.8576 9.61101C99.6345 9.26503 99.3614 8.9714 99.0381 8.73012C98.7149 8.48884 98.353 8.30674 97.9524 8.18383C97.5563 8.06091 97.1352 7.99946 96.6891 7.99946C95.8833 7.99946 95.1618 8.20204 94.5244 8.6072C93.8916 9.01237 93.3909 9.60646 93.0221 10.3895C92.6579 11.1725 92.4758 12.1285 92.4758 13.2575C92.4758 14.3956 92.6579 15.3562 93.0221 16.1392C93.3909 16.9222 93.8939 17.514 94.5312 17.9146C95.1686 18.3152 95.8856 18.5155 96.6823 18.5155C97.1238 18.5155 97.5427 18.4563 97.9387 18.338C98.3393 18.2151 98.7013 18.0353 99.0245 17.7985C99.3477 17.5618 99.6208 17.2727 99.8439 16.9313C100.072 16.5853 100.229 16.1892 100.315 15.7431L102.446 15.7499C102.332 16.4374 102.111 17.0701 101.783 17.6483C101.46 18.2219 101.043 18.7181 100.534 19.1369C100.028 19.5512 99.4501 19.8721 98.7991 20.0998C98.1481 20.3274 97.438 20.4412 96.6686 20.4412C95.4577 20.4412 94.3787 20.1544 93.4318 19.5808C92.4849 19.0026 91.7383 18.1764 91.1921 17.102C90.6503 16.0276 90.3794 14.7461 90.3794 13.2575C90.3794 11.7643 90.6526 10.4828 91.1989 9.41298C91.7452 8.33861 92.4918 7.51462 93.4387 6.94102C94.3856 6.36286 95.4622 6.07379 96.6686 6.07379C97.4107 6.07379 98.1026 6.18077 98.7445 6.39473C99.391 6.60414 99.9714 6.91371 100.486 7.32342C101 7.72859 101.426 8.2248 101.763 8.81206C102.1 9.39477 102.327 10.0617 102.446 10.8128ZM104.807 20.25V9.76124H106.848V20.25H104.807ZM105.838 8.14286C105.483 8.14286 105.178 8.02449 104.923 7.78777C104.672 7.54649 104.547 7.25969 104.547 6.92736C104.547 6.59048 104.672 6.30368 104.923 6.06696C105.178 5.82568 105.483 5.70504 105.838 5.70504C106.193 5.70504 106.496 5.82568 106.746 6.06696C107.001 6.30368 107.128 6.59048 107.128 6.92736C107.128 7.25969 107.001 7.54649 106.746 7.78777C106.496 8.02449 106.193 8.14286 105.838 8.14286ZM114.491 9.76124V11.4001H108.762V9.76124H114.491ZM110.299 7.24831H112.34V17.1703C112.34 17.5664 112.399 17.8645 112.518 18.0648C112.636 18.2606 112.789 18.3949 112.975 18.4677C113.167 18.536 113.374 18.5702 113.597 18.5702C113.761 18.5702 113.904 18.5588 114.027 18.536C114.15 18.5133 114.245 18.495 114.314 18.4814L114.683 20.1681C114.564 20.2136 114.396 20.2591 114.177 20.3046C113.959 20.3547 113.686 20.382 113.358 20.3866C112.821 20.3957 112.32 20.3001 111.855 20.0998C111.391 19.8995 111.016 19.5899 110.729 19.1711C110.442 18.7523 110.299 18.2265 110.299 17.5937V7.24831ZM118.04 24.1833C117.735 24.1833 117.458 24.1582 117.207 24.1082C116.957 24.0626 116.77 24.0126 116.647 23.9579L117.139 22.2849C117.512 22.3851 117.845 22.4283 118.136 22.4147C118.427 22.401 118.685 22.2918 118.908 22.0869C119.135 21.882 119.336 21.5474 119.509 21.0831L119.761 20.3866L115.924 9.76124H118.109L120.765 17.901H120.874L123.531 9.76124H125.723L121.4 21.6499C121.2 22.1962 120.945 22.6582 120.635 23.0361C120.326 23.4185 119.957 23.7053 119.529 23.8965C119.101 24.0877 118.605 24.1833 118.04 24.1833ZM54.8314 39.25V25.265H59.8163C60.8997 25.265 61.7988 25.4516 62.5136 25.8249C63.2328 26.1982 63.77 26.7149 64.1251 27.375C64.4802 28.0306 64.6577 28.7886 64.6577 29.649C64.6577 30.5048 64.4779 31.2582 64.1183 31.9092C63.7632 32.5557 63.226 33.0587 62.5067 33.4184C61.792 33.778 60.8929 33.9578 59.8094 33.9578H56.0332V32.1414H59.6182C60.3011 32.1414 60.8565 32.0435 61.2844 31.8478C61.7169 31.652 62.0333 31.3675 62.2336 30.9942C62.4339 30.6209 62.534 30.1725 62.534 29.649C62.534 29.1209 62.4316 28.6634 62.2268 28.2764C62.0265 27.8895 61.7101 27.5935 61.2776 27.3887C60.8497 27.1793 60.2874 27.0746 59.5909 27.0746H56.9414V39.25H54.8314ZM61.7351 32.9404L65.1904 39.25H62.7867L59.3997 32.9404H61.7351ZM71.4505 39.4617C70.4171 39.4617 69.5271 39.2409 68.7805 38.7993C68.0385 38.3532 67.4649 37.7272 67.0597 36.9214C66.6591 36.1111 66.4588 35.1619 66.4588 34.0739C66.4588 32.9995 66.6591 32.0526 67.0597 31.2332C67.4649 30.4138 68.0294 29.7742 68.7532 29.3144C69.4816 28.8546 70.3329 28.6247 71.3071 28.6247C71.8989 28.6247 72.4725 28.7225 73.0279 28.9183C73.5833 29.1141 74.0818 29.4213 74.5234 29.8402C74.965 30.259 75.3132 30.803 75.5682 31.4722C75.8231 32.1369 75.9506 32.9449 75.9506 33.8964V34.6202H67.6128V33.0906H73.9498C73.9498 32.5534 73.8405 32.0777 73.622 31.6634C73.4035 31.2446 73.0962 30.9145 72.7002 30.6733C72.3086 30.432 71.8489 30.3113 71.3208 30.3113C70.7472 30.3113 70.2464 30.4525 69.8185 30.7347C69.3951 31.0124 69.0673 31.3766 68.8352 31.8273C68.6075 32.2734 68.4937 32.7583 68.4937 33.2818V34.4768C68.4937 35.1779 68.6166 35.7742 68.8625 36.2659C69.1129 36.7576 69.4611 37.1331 69.9072 37.3926C70.3534 37.6476 70.8746 37.775 71.471 37.775C71.858 37.775 72.2108 37.7204 72.5294 37.6111C72.8481 37.4973 73.1235 37.3289 73.3557 37.1058C73.5879 36.8827 73.7654 36.6073 73.8883 36.2796L75.8208 36.6278C75.666 37.1969 75.3884 37.6954 74.9877 38.1233C74.5917 38.5467 74.0932 38.8767 73.4923 39.1134C72.8959 39.3456 72.2153 39.4617 71.4505 39.4617ZM81.2684 39.4822C80.6037 39.4822 80.0028 39.3593 79.4656 39.1134C78.9284 38.863 78.5028 38.5011 78.1887 38.0277C77.8791 37.5542 77.7243 36.9738 77.7243 36.2864C77.7243 35.6946 77.8381 35.2075 78.0657 34.8251C78.2934 34.4427 78.6006 34.1399 78.9876 33.9168C79.3746 33.6938 79.807 33.5253 80.285 33.4115C80.763 33.2977 81.2502 33.2112 81.7464 33.152C82.3746 33.0792 82.8845 33.02 83.276 32.9745C83.6675 32.9244 83.952 32.8448 84.1296 32.7355C84.3071 32.6262 84.3959 32.4487 84.3959 32.2029V32.1551C84.3959 31.5587 84.2274 31.0966 83.8906 30.7689C83.5582 30.4411 83.062 30.2772 82.4019 30.2772C81.7145 30.2772 81.1728 30.4297 80.7767 30.7347C80.3852 31.0352 80.1143 31.3698 79.9641 31.7385L78.0453 31.3015C78.2729 30.6641 78.6052 30.1497 79.0422 29.7582C79.4838 29.3622 79.9914 29.0754 80.565 28.8978C81.1386 28.7157 81.7418 28.6247 82.3746 28.6247C82.7934 28.6247 83.2373 28.6747 83.7062 28.7749C84.1796 28.8705 84.6212 29.048 85.0309 29.3075C85.4452 29.567 85.7844 29.938 86.0484 30.4206C86.3124 30.8986 86.4445 31.52 86.4445 32.2848V39.25H84.4505V37.816H84.3686C84.2365 38.08 84.0385 38.3395 83.7745 38.5945C83.5104 38.8494 83.1713 39.0611 82.757 39.2295C82.3427 39.398 81.8465 39.4822 81.2684 39.4822ZM81.7122 37.8433C82.2767 37.8433 82.7593 37.7318 83.1599 37.5087C83.5651 37.2856 83.8723 36.9943 84.0818 36.6346C84.2957 36.2704 84.4027 35.8812 84.4027 35.4669V34.1149C84.3299 34.1877 84.1887 34.256 83.9793 34.3197C83.7745 34.3789 83.54 34.4313 83.276 34.4768C83.0119 34.5178 82.7547 34.5565 82.5043 34.5929C82.254 34.6247 82.0446 34.6521 81.8761 34.6748C81.4801 34.7249 81.1181 34.8091 80.7904 34.9275C80.4671 35.0458 80.2077 35.2166 80.0119 35.4396C79.8207 35.6581 79.7251 35.9495 79.7251 36.3137C79.7251 36.819 79.9117 37.2014 80.285 37.4609C80.6583 37.7158 81.1341 37.8433 81.7122 37.8433ZM91.2057 25.265V39.25H89.164V25.265H91.2057ZM98.8486 28.7612V30.4001H93.1194V28.7612H98.8486ZM94.6559 26.2483H96.6976V36.1703C96.6976 36.5664 96.7568 36.8645 96.8752 37.0648C96.9935 37.2606 97.146 37.3949 97.3327 37.4677C97.5239 37.536 97.731 37.5702 97.9541 37.5702C98.118 37.5702 98.2614 37.5588 98.3843 37.536C98.5072 37.5133 98.6028 37.495 98.6711 37.4814L99.0398 39.1681C98.9215 39.2136 98.753 39.2591 98.5345 39.3046C98.316 39.3547 98.0429 39.382 97.7151 39.3866C97.1779 39.3957 96.6771 39.3001 96.2128 39.0998C95.7485 38.8995 95.3729 38.5899 95.0861 38.1711C94.7993 37.7523 94.6559 37.2265 94.6559 36.5937V26.2483ZM102.398 43.1833C102.093 43.1833 101.815 43.1582 101.565 43.1082C101.314 43.0626 101.128 43.0126 101.005 42.9579L101.496 41.2849C101.87 41.3851 102.202 41.4283 102.493 41.4147C102.785 41.401 103.042 41.2918 103.265 41.0869C103.493 40.882 103.693 40.5474 103.866 40.0831L104.119 39.3866L100.281 28.7612H102.466L105.122 36.901H105.232L107.888 28.7612H110.08L105.758 40.6499C105.557 41.1962 105.302 41.6582 104.993 42.0361C104.683 42.4185 104.314 42.7053 103.886 42.8965C103.459 43.0877 102.962 43.1833 102.398 43.1833Z" fill="black"/>
</svg>
